<svg width="35" height="35" viewBox="0 0 35 35" fill="none" xmlns="http://www.w3.org/2000/svg">
<path d="M10.0851 5.37689C9.95356 5.23766 9.8507 5.07388 9.78243 4.8949C9.71416 4.71593 9.6818 4.52525 9.68722 4.33377C9.69264 4.14229 9.73572 3.95375 9.814 3.77891C9.89228 3.60408 10.0042 3.44638 10.1435 3.31481C10.2827 3.18324 10.4465 3.08038 10.6254 3.01211C10.8044 2.94384 10.9951 2.91149 11.1866 2.9169C11.3781 2.92232 11.5666 2.9654 11.7414 3.04368C11.9163 3.12196 12.074 3.23391 12.2055 3.37314L24.6014 16.4981C24.8574 16.7689 25 17.1274 25 17.5C25 17.8726 24.8574 18.2311 24.6014 18.5019L12.2055 31.6283C12.0748 31.7706 11.9172 31.8855 11.7417 31.9663C11.5662 32.0472 11.3764 32.0923 11.1834 32.0992C10.9903 32.106 10.7978 32.0745 10.617 32.0063C10.4362 31.9381 10.2708 31.8347 10.1303 31.7021C9.98987 31.5694 9.87716 31.4102 9.79875 31.2336C9.72034 31.0571 9.6778 30.8667 9.67359 30.6735C9.66939 30.4804 9.7036 30.2883 9.77425 30.1085C9.84489 29.9287 9.95057 29.7647 10.0851 29.6261L21.536 17.5L10.0851 5.37689Z" fill="white"/>
</svg>
