<svg width="35" height="35" viewBox="0 0 35 35" fill="none" xmlns="http://www.w3.org/2000/svg">
<path d="M24.9149 5.37689C25.0464 5.23766 25.1493 5.07388 25.2176 4.8949C25.2858 4.71593 25.3182 4.52525 25.3128 4.33377C25.3074 4.14229 25.2643 3.95375 25.186 3.77891C25.1077 3.60408 24.9958 3.44638 24.8565 3.31481C24.7173 3.18324 24.5535 3.08038 24.3746 3.01211C24.1956 2.94384 24.0049 2.91149 23.8134 2.9169C23.6219 2.92232 23.4334 2.9654 23.2586 3.04368C23.0837 3.12196 22.926 3.23391 22.7945 3.37314L10.3986 16.4981C10.1426 16.7689 10 17.1274 10 17.5C10 17.8726 10.1426 18.2311 10.3986 18.5019L22.7945 31.6283C22.9252 31.7706 23.0828 31.8855 23.2583 31.9663C23.4338 32.0472 23.6236 32.0923 23.8166 32.0992C24.0097 32.106 24.2022 32.0745 24.383 32.0063C24.5638 31.9381 24.7292 31.8347 24.8697 31.7021C25.0101 31.5694 25.1228 31.4102 25.2012 31.2336C25.2797 31.0571 25.3222 30.8667 25.3264 30.6735C25.3306 30.4804 25.2964 30.2883 25.2258 30.1085C25.1551 29.9287 25.0494 29.7647 24.9149 29.6261L13.464 17.5L24.9149 5.37689Z" fill="white"/>
</svg>
